# xmcd
#
# Track frame offsets: 
#        150
#        12240
#        21671
#        33090
#        44261
#        56698
#        68439
#        78967
#        89336
#        100429
#        114051
#        126674
#        137674
#        149575
#        158500
#        169442
#
# Disc length: 2354 seconds
#
# Revision: 2
# Processed by: cddbd v1.5.2PL0 Copyright (c) Steve Scherf et al.
# Submitted via: ExactAudioCopyFreeDBPlugin 1.0
#
DISCID=d6093010
DTITLE=Various Artist - Golden Age Of Country
DYEAR=2011
DGENRE=Country
TTITLE0=Kitty Wells - It Wasn't God Who Made Honky Tonk Angels
TTITLE1=Bob Luman - Let's Think About Living
TTITLE2=Johnny Horton - Battle Of New Orleans
TTITLE3=Stonewall Jackson - Waterloo
TTITLE4=Johnny Cash - Folsom Priso Blues
TTITLE5=Patsy Cline - Walking After Mitnight
TTITLE6=The Stutler Brothers - Flowers On TheWall
TTITLE7=George Jones - Walk Through This World With Me
TTITLE8=Buck Owens - My Heart Skips A Beat
TTITLE9=Pee Wee King and His Golden Cowboys - Slow Poke
TTITLE10=Red Foley - Chattanooga Shoe Shine Boy
TTITLE11=Charlie Walker - Pick Me Up On Your Way Down
TTITLE12=Ernest Ashworth - Talk Back Trempling Lips
TTITLE13=Faron Young - Alone With You
TTITLE14=Webb Pierce - There Stands The Glass
TTITLE15=Flatt and Scuggs - Ballad Of Led Clampett
EXTD=
EXTT0=
EXTT1=
EXTT2=
EXTT3=
EXTT4=
EXTT5=
EXTT6=
EXTT7=
EXTT8=
EXTT9=
EXTT10=
EXTT11=
EXTT12=
EXTT13=
EXTT14=
EXTT15=
PLAYORDER=
